<?xml version="1.0" standalone="no"?>
<!DOCTYPE svg PUBLIC "-//W3C//DTD SVG 20010904//EN"
 "http://www.w3.org/TR/2001/REC-SVG-20010904/DTD/svg10.dtd">
<svg version="1.0" xmlns="http://www.w3.org/2000/svg"
 width="51.000000pt" height="50.000000pt" viewBox="0 0 51.000000 50.000000"
 preserveAspectRatio="xMidYMid meet">

<g transform="translate(0.000000,50.000000) scale(0.100000,-0.100000)"
fill="#000000" stroke="none">
<path d="M162 493 c48 -2 129 -2 180 0 51 1 12 3 -87 3 -99 0 -141 -2 -93 -3z"/>
<path d="M238 463 c-3 -5 -3 -30 -1 -58 2 -27 5 -66 6 -86 1 -30 5 -36 22 -35
18 1 20 7 19 66 -1 79 -12 120 -29 120 -8 0 -15 -3 -17 -7z"/>
<path d="M242 195 c0 -16 2 -22 5 -12 2 9 2 23 0 30 -3 6 -5 -1 -5 -18z"/>
<path d="M282 195 c0 -16 2 -22 5 -12 2 9 2 23 0 30 -3 6 -5 -1 -5 -18z"/>
<path d="M115 170 c3 -5 8 -10 11 -10 2 0 4 5 4 10 0 6 -5 10 -11 10 -5 0 -7
-4 -4 -10z"/>
<path d="M380 169 c0 -5 5 -7 10 -4 6 3 10 8 10 11 0 2 -4 4 -10 4 -5 0 -10
-5 -10 -11z"/>
<path d="M150 152 c0 -11 61 -32 93 -32 29 0 10 17 -25 23 -18 3 -41 8 -50 12
-11 4 -18 3 -18 -3z"/>
<path d="M303 147 c-34 -12 -46 -30 -15 -23 62 13 82 20 82 27 0 11 -25 9 -67
-4z"/>
<path d="M24 109 c0 -13 3 -15 13 -7 9 7 13 7 13 0 0 -5 6 -12 14 -15 10 -4
12 0 8 15 -4 17 -2 19 18 13 15 -5 20 -4 16 3 -3 6 -23 11 -44 10 -30 0 -38
-4 -38 -19z"/>
<path d="M409 122 c-1 -4 -1 -10 0 -15 1 -4 -11 -4 -25 -1 -18 5 -25 3 -20 -4
4 -7 -6 -9 -31 -6 -28 3 -33 2 -18 -5 18 -8 17 -9 -10 -12 -52 -7 -119 2 -104
13 10 6 -1 8 -31 4 -34 -5 -41 -4 -30 5 12 8 10 10 -10 5 -14 -3 -28 -6 -32
-6 -15 0 -8 -20 7 -20 8 0 15 -4 15 -10 0 -5 7 -10 15 -10 8 0 24 -5 35 -10
60 -30 58 -30 53 -9 -5 16 0 19 32 19 32 0 37 -3 32 -19 -5 -21 -4 -21 50 7
13 7 30 12 38 12 8 0 15 5 15 10 0 6 7 10 15 10 8 0 15 9 15 20 0 11 5 20 11
20 6 0 9 -9 6 -19 -3 -14 -1 -18 9 -14 8 3 14 10 14 15 0 7 4 7 13 0 10 -8 13
-6 13 7 0 15 -8 19 -38 19 -21 1 -39 -2 -39 -6z"/>
</g>
</svg>
